<?xml version="1.0" encoding="UTF-8" standalone="no"?>
<!-- Generator: Adobe Illustrator 16.0.0, SVG Export Plug-In . SVG Version: 6.00 Build 0)  -->

<svg
   version="1.1"
   id="Capa_1"
   x="0px"
   y="0px"
   width="64px"
   height="64px"
   viewBox="0 0 64 64"
   style="enable-background:new 0 0 64 64;"
   xml:space="preserve"
   sodipodi:docname="email-icon.svg"
   inkscape:version="1.2.2 (b0a8486541, 2022-12-01)"
   xmlns:inkscape="http://www.inkscape.org/namespaces/inkscape"
   xmlns:sodipodi="http://sodipodi.sourceforge.net/DTD/sodipodi-0.dtd"
   xmlns="http://www.w3.org/2000/svg"
   xmlns:svg="http://www.w3.org/2000/svg"><defs
   id="defs49" /><sodipodi:namedview
   id="namedview47"
   pagecolor="#ffffff"
   bordercolor="#000000"
   borderopacity="0.25"
   inkscape:showpageshadow="2"
   inkscape:pageopacity="0.0"
   inkscape:pagecheckerboard="0"
   inkscape:deskcolor="#d1d1d1"
   showgrid="false"
   inkscape:zoom="13.8125"
   inkscape:cx="28.923077"
   inkscape:cy="26.244344"
   inkscape:window-width="1920"
   inkscape:window-height="1023"
   inkscape:window-x="0"
   inkscape:window-y="0"
   inkscape:window-maximized="1"
   inkscape:current-layer="Capa_1" />
<g
   id="g14"
   inkscape:label="g14"
   style="fill:#ffffff;fill-opacity:1">
	<g
   id="g12"
   style="fill:#ffffff;fill-opacity:1">
		<g
   id="circle_4_"
   style="display:inline;fill:#ffffff;fill-opacity:1">
			<g
   id="g4"
   style="fill:#ffffff;fill-opacity:1">
				<path
   d="M 32,0 C 14.327,0 0,14.327 0,32 0,49.673 14.327,64 32,64 49.673,64 64,49.673 64,32 64,14.327 49.673,0 32,0 Z m 0,62 C 15.432,62 2,48.568 2,32.001 2,15.432 15.432,2 32,2 48.568,2 62,15.432 62,32.001 62,48.568 48.568,62 32,62 Z"
   id="path2"
   style="fill:#ffffff;fill-opacity:1" />
			</g>
		</g>
		<g
   id="mail"
   style="fill:#ffffff;fill-opacity:1">
			<g
   id="g9"
   style="fill:#ffffff;fill-opacity:1">
				<path
   d="M46,21H18c-1.104,0-2,0.896-2,2v18c0,1.104,0.896,2,2,2h28c1.104,0,2-0.896,2-2V23C48,21.896,47.104,21,46,21z       M44.205,23L32,35L19.891,23H44.205z M18,41V24.006l9.589,9.589L20.061,41H18z M22.985,41l6.081-5.927l1.58,1.579      c0.781,0.781,2.047,0.781,2.829,0l1.531-1.531L41.087,41H22.985z M46,41h-1.939l-7.527-7.405L46,24.128V41z"
   id="path7"
   style="fill:#ffffff;fill-opacity:1" />
			</g>
		</g>
	</g>
</g>















</svg>
