<?xml version="1.0" encoding="UTF-8" standalone="no"?>
<svg
   viewBox="0 0 576 512"
   version="1.1"
   id="svg4"
   sodipodi:docname="house.svg"
   inkscape:version="1.2.2 (b0a8486541, 2022-12-01)"
   xmlns:inkscape="http://www.inkscape.org/namespaces/inkscape"
   xmlns:sodipodi="http://sodipodi.sourceforge.net/DTD/sodipodi-0.dtd"
   xmlns="http://www.w3.org/2000/svg"
   xmlns:svg="http://www.w3.org/2000/svg">
  <defs
     id="defs8" />
  <sodipodi:namedview
     id="namedview6"
     pagecolor="#ffffff"
     bordercolor="#000000"
     borderopacity="0.25"
     inkscape:showpageshadow="2"
     inkscape:pageopacity="0.0"
     inkscape:pagecheckerboard="0"
     inkscape:deskcolor="#d1d1d1"
     showgrid="false"
     inkscape:zoom="1.7265625"
     inkscape:cx="287.8552"
     inkscape:cy="256"
     inkscape:window-width="1920"
     inkscape:window-height="1024"
     inkscape:window-x="0"
     inkscape:window-y="0"
     inkscape:window-maximized="1"
     inkscape:current-layer="svg4" />
  <!--! Font Awesome Free 6.7.0 by @fontawesome - https://fontawesome.com License - https://fontawesome.com/license/free (Icons: CC BY 4.0, Fonts: SIL OFL 1.1, Code: MIT License) Copyright 2024 Fonticons, Inc. -->
  <path
     d="M575.8 255.5c0 18-15 32.1-32 32.1l-32 0 .7 160.2c0 2.7-.2 5.4-.5 8.1l0 16.2c0 22.1-17.9 40-40 40l-16 0c-1.1 0-2.2 0-3.3-.1c-1.4 .1-2.8 .1-4.2 .1L416 512l-24 0c-22.1 0-40-17.9-40-40l0-24 0-64c0-17.7-14.3-32-32-32l-64 0c-17.7 0-32 14.3-32 32l0 64 0 24c0 22.1-17.9 40-40 40l-24 0-31.9 0c-1.5 0-3-.1-4.5-.2c-1.2 .1-2.4 .2-3.6 .2l-16 0c-22.1 0-40-17.9-40-40l0-112c0-.9 0-1.9 .1-2.8l0-69.7-32 0c-18 0-32-14-32-32.1c0-9 3-17 10-24L266.4 8c7-7 15-8 22-8s15 2 21 7L564.8 231.5c8 7 12 15 11 24z"
     id="path2" />
  <path
     style="fill:#ffffff;stroke-width:0.579186"
     d="m 97.053359,511.08004 c -15.628806,-3.06573 -27.403445,-14.2214 -31.734687,-30.06647 -0.969504,-3.54675 -1.020252,-9.27203 -0.876649,-98.89592 l 0.152424,-95.13122 -18.686363,-0.007 C 31.370956,286.97434 26.515359,286.78471 24.040579,286.12616 6.4315992,281.4403 -3.4956681,263.01263 2.001331,245.21542 3.2016431,241.32926 6.4195608,235.90135 9.3455957,232.82727 12.519367,229.49293 267.36651,7.5131442 270.81737,5.0772328 c 4.97615,-3.5126011 8.64828,-4.48032484 17.03783,-4.49001751 8.00013,-0.009243 12.98072,1.22195491 18.03365,4.45790531 3.707,2.3740056 258.95247,226.7249994 262.71448,230.9159694 1.50649,1.67827 3.58683,4.77343 4.62297,6.87814 1.67226,3.39685 1.90735,4.48115 2.09266,9.65212 0.25503,7.11615 -0.81213,12.19734 -3.7265,17.7434 -3.72963,7.09749 -10.18096,12.5595 -18.24971,15.45111 -4.22434,1.51388 -4.49682,1.53476 -23.04872,1.76616 l -18.77384,0.23417 0.32794,80.30171 c 0.18036,44.16593 0.13599,87.3388 -0.0986,95.9397 -0.40804,14.95965 -0.49536,15.83876 -2.01303,20.26593 -4.13296,12.05618 -13.63675,21.6232 -25.4618,25.63119 l -4.70908,1.59609 H 432.362 385.15838 l -5.12861,-1.68091 c -12.01087,-3.93661 -21.53803,-13.42347 -25.94012,-25.8304 l -1.33575,-3.7647 -0.31714,-50.96833 c -0.31427,-50.5064 -0.32865,-51.00245 -1.58668,-54.73303 -3.75428,-11.13298 -13.07481,-19.7361 -23.78355,-21.95289 -2.03804,-0.42188 -15.17318,-0.63247 -39.09503,-0.62679 -39.98041,0.01 -40.13754,0.0221 -47.30043,3.78608 -6.91626,3.63439 -13.14668,11.19731 -15.72094,19.08319 -0.58771,1.80039 -0.83123,13.61205 -1.09259,52.99548 -0.37314,56.22711 -0.16131,53.21138 -4.33278,61.68325 -4.03145,8.1875 -10.06492,14.11968 -18.54737,18.236 -8.41789,4.08498 -8.20819,4.07039 -57.45975,3.99919 -24.14375,-0.0349 -45.052669,-0.29001 -46.464271,-0.56691 z"
     id="path306" />
</svg>
