<?xml version="1.0" encoding="UTF-8" standalone="no"?>
<svg
   width="24"
   height="24"
   stroke-width="1.5"
   viewBox="0 0 24 24"
   fill="none"
   version="1.1"
   id="svg8"
   sodipodi:docname="instagram-icon.svg"
   inkscape:version="1.2.2 (b0a8486541, 2022-12-01)"
   xmlns:inkscape="http://www.inkscape.org/namespaces/inkscape"
   xmlns:sodipodi="http://sodipodi.sourceforge.net/DTD/sodipodi-0.dtd"
   xmlns="http://www.w3.org/2000/svg"
   xmlns:svg="http://www.w3.org/2000/svg">
  <defs
     id="defs12" />
  <sodipodi:namedview
     id="namedview10"
     pagecolor="#ffffff"
     bordercolor="#000000"
     borderopacity="0.25"
     inkscape:showpageshadow="2"
     inkscape:pageopacity="0.0"
     inkscape:pagecheckerboard="0"
     inkscape:deskcolor="#d1d1d1"
     showgrid="false"
     inkscape:zoom="36.833333"
     inkscape:cx="12.013575"
     inkscape:cy="12.013575"
     inkscape:window-width="1920"
     inkscape:window-height="1023"
     inkscape:window-x="0"
     inkscape:window-y="0"
     inkscape:window-maximized="1"
     inkscape:current-layer="svg8" />
  <path
     d="M12 16C14.2091 16 16 14.2091 16 12C16 9.79086 14.2091 8 12 8C9.79086 8 8 9.79086 8 12C8 14.2091 9.79086 16 12 16Z"
     stroke="currentColor"
     stroke-linecap="round"
     stroke-linejoin="round"
     id="path2"
     style="fill:none;fill-opacity:1"
     inkscape:label="path2" />
  <path
     d="M3 16V8C3 5.23858 5.23858 3 8 3H16C18.7614 3 21 5.23858 21 8V16C21 18.7614 18.7614 21 16 21H8C5.23858 21 3 18.7614 3 16Z"
     stroke="currentColor"
     stroke-width="1.5"
     id="path4"
     style="fill:none;fill-opacity:1" />
  <path
     d="M17.5 6.51L17.51 6.49889"
     stroke="currentColor"
     stroke-linecap="round"
     stroke-linejoin="round"
     id="path6"
     style="fill:none;fill-opacity:1" />
  <path
     style="fill:#ffffff;fill-opacity:1;stroke-width:0.040724"
     d="M 11.479775,16.70785 C 9.8986297,16.523564 8.5216933,15.570828 7.7951518,14.158371 7.0901349,12.78776 7.0901773,11.211474 7.7952677,9.841629 8.0362045,9.3735386 8.2780724,9.0435803 8.6608263,8.6608263 9.0435803,8.2780724 9.3735386,8.0362045 9.841629,7.7952677 c 1.375026,-0.7077574 2.941716,-0.7077574 4.316742,0 0.46809,0.2409368 0.798049,0.4828047 1.180803,0.8655586 0.382754,0.382754 0.624621,0.7127123 0.865558,1.1808027 0.593805,1.15364 0.690288,2.464726 0.271575,3.690372 -0.315372,0.923149 -0.9285,1.743013 -1.742486,2.330025 -0.284198,0.204951 -0.901947,0.517809 -1.247165,0.631625 -0.631067,0.208057 -1.376736,0.287644 -2.006881,0.214199 z m 1.158234,-1.507832 c 1.300643,-0.263543 2.283674,-1.249785 2.567198,-2.575584 0.0636,-0.297416 0.0636,-0.951452 0,-1.248868 -0.285395,-1.334548 -1.246225,-2.295378 -2.580773,-2.580773 -0.297416,-0.063603 -0.951452,-0.063603 -1.248868,0 -1.334611,0.2854085 -2.2922748,1.2429 -2.5812366,2.580773 -0.063826,0.295509 -0.063554,0.94888 5.207e-4,1.248868 0.2705213,1.266552 1.1788511,2.226411 2.4016909,2.537939 0.445512,0.113497 0.996151,0.127878 1.441468,0.03764 z"
     id="path915" />
  <path
     style="fill:#ffffff;fill-opacity:1;stroke-width:0.040724"
     d="M 7.39819,21.703169 C 5.3328565,21.471724 3.5578306,20.166687 2.7431859,18.280711 2.4972414,17.711328 2.3564663,17.167174 2.2947984,16.547511 2.2723937,16.32238 2.2665242,14.993377 2.2737551,11.782805 2.2837187,7.3589443 2.2841582,7.3283965 2.3421179,7.0316742 2.6601956,5.4032859 3.511389,4.1037741 4.8325792,3.2295022 5.5345732,2.7649714 6.1960985,2.5009417 7.0588235,2.3409579 L 7.3846154,2.280543 H 12 16.615385 l 0.325791,0.060415 c 0.960916,0.1781922 1.782511,0.5315921 2.497738,1.0743735 0.623144,0.4729002 1.084486,0.9897284 1.499301,1.6796226 0.411544,0.6844529 0.6745,1.4860521 0.766335,2.3361027 0.03921,0.3629322 0.03921,8.7749542 0,9.1378862 -0.17687,1.637163 -0.9791,3.049373 -2.292785,4.036117 -0.800348,0.601162 -1.796561,0.986458 -2.842822,1.09949 -0.319652,0.03453 -8.8617451,0.03325 -9.170753,-0.0014 z m 9.027149,-1.463913 c 0.980119,-0.109373 1.804974,-0.485634 2.487657,-1.134752 0.693993,-0.659872 1.108826,-1.421871 1.293317,-2.375668 0.03776,-0.195226 0.04422,-0.741854 0.05347,-4.525216 0.0074,-3.0325828 0.0016,-4.3913469 -0.01967,-4.60181 C 20.133887,6.5510487 19.74853,5.7369643 19.005783,4.994217 18.275602,4.2640358 17.448479,3.8675035 16.43227,3.7604447 c -0.337396,-0.035545 -8.5271443,-0.035545 -8.8645403,0 C 6.5471096,3.8679683 5.6397657,4.3117743 4.9265062,5.0523377 4.2493278,5.7554386 3.8568733,6.610456 3.7583773,7.5972711 c -0.017848,0.1788117 -0.024013,1.801197 -0.017507,4.6063489 0.010985,4.735898 1.819e-4,4.415016 0.168331,4.999493 0.3421374,1.189249 1.2466823,2.210827 2.4007598,2.711377 0.3234572,0.140291 0.7337025,0.255818 1.0475047,0.294981 0.1343891,0.01677 0.2748868,0.03491 0.3122172,0.0403 0.1711148,0.02472 8.529887,0.01468 8.755656,-0.01051 z"
     id="path986" />
  <path
     style="fill:#ffffff;fill-opacity:1;stroke-width:0.040724"
     d="M 17.177914,7.1653099 C 16.735265,6.9447287 16.634044,6.373758 16.973292,6.0110742 c 0.166806,-0.1783287 0.34769,-0.2520862 0.577723,-0.2355721 0.757353,0.05437 0.947904,1.0502729 0.265974,1.3900929 -0.195552,0.097448 -0.443172,0.097338 -0.639075,-2.851e-4 z"
     id="path988" />
</svg>
