<?xml version="1.0" encoding="UTF-8" standalone="no"?>
<svg
   id="twitter"
   version="1.1"
   width="300"
   height="300"
   viewBox="0 0 300 300"
   xml:space="preserve"
   sodipodi:docname="twitter-icon.svg"
   inkscape:version="1.2.2 (b0a8486541, 2022-12-01)"
   xmlns:inkscape="http://www.inkscape.org/namespaces/inkscape"
   xmlns:sodipodi="http://sodipodi.sourceforge.net/DTD/sodipodi-0.dtd"
   xmlns="http://www.w3.org/2000/svg"
   xmlns:svg="http://www.w3.org/2000/svg"><sodipodi:namedview
   id="namedview5"
   pagecolor="#ffffff"
   bordercolor="#000000"
   borderopacity="0.25"
   inkscape:showpageshadow="2"
   inkscape:pageopacity="0.0"
   inkscape:pagecheckerboard="0"
   inkscape:deskcolor="#d1d1d1"
   showgrid="false"
   inkscape:zoom="2.9466667"
   inkscape:cx="86.029412"
   inkscape:cy="150.16968"
   inkscape:window-width="1920"
   inkscape:window-height="1023"
   inkscape:window-x="0"
   inkscape:window-y="0"
   inkscape:window-maximized="1"
   inkscape:current-layer="twitter" />
<defs
   id="defs" />
<path
   id="bird"
   d="m 250,87.974 c -7.358,3.264 -15.267,5.469 -23.566,6.461 8.471,-5.078 14.978,-13.119 18.041,-22.701 -7.929,4.703 -16.71,8.117 -26.057,9.957 -7.484,-7.975 -18.148,-12.957 -29.95,-12.957 -22.66,0 -41.033,18.371 -41.033,41.031 0,3.216 0.363,6.348 1.062,9.351 -34.102,-1.711 -64.336,-18.047 -84.574,-42.872 -3.532,6.06 -5.556,13.108 -5.556,20.628 0,14.236 7.244,26.795 18.254,34.153 -6.726,-0.213 -13.053,-2.059 -18.585,-5.132 -0.004,0.171 -0.004,0.343 -0.004,0.516 0,19.88 14.144,36.464 32.915,40.234 -3.443,0.938 -7.068,1.439 -10.81,1.439 -2.644,0 -5.214,-0.258 -7.72,-0.736 5.222,16.301 20.375,28.165 38.331,28.495 -14.043,11.006 -31.735,17.565 -50.96,17.565 -3.312,0 -6.578,-0.194 -9.788,-0.574 18.159,11.643 39.727,18.437 62.899,18.437 75.473,0 116.746,-62.524 116.746,-116.747 0,-1.779 -0.04,-3.548 -0.119,-5.309 8.017,-5.784 14.973,-13.011 20.474,-21.239 z"
   style="display:inline;fill:#ffffff;fill-opacity:1" />
<path
   style="display:none;fill:#000000;fill-opacity:0;stroke-width:0.339367"
   d="m 102.82805,230.70746 c -10.590895,-0.9156 -24.275042,-4.25326 -33.993736,-8.29131 -5.393385,-2.24092 -14.339307,-6.84105 -17.08092,-8.78328 -0.363291,-0.25736 0.997124,-0.29972 4.751131,-0.14794 16.24348,0.65677 32.368018,-3.51643 46.413925,-12.01243 3.38358,-2.04664 7.8715,-5.22108 7.87917,-5.57318 0.003,-0.13999 -0.56713,-0.25514 -1.26708,-0.25589 -2.31061,-0.002 -7.65292,-1.02761 -10.733121,-2.05957 -8.704894,-2.9164 -16.313485,-8.74135 -21.395351,-16.37974 -1.701807,-2.55794 -4.60795,-8.44788 -4.60795,-9.33904 0,-0.15405 0.725396,-0.1607 1.611991,-0.0148 4.014476,0.66079 14.43509,-0.001 16.326705,-1.03722 0.286663,-0.157 -0.402278,-0.46959 -1.819639,-0.82561 C 78.118377,163.27588 68.164449,155.3969 63.005157,145.48009 60.239065,140.16331 58.766502,135.069 58.321225,129.2761 c -0.191512,-2.4915 -0.150794,-2.94347 0.249877,-2.77366 0.26327,0.11157 1.71549,0.73334 3.227156,1.38171 1.511666,0.64837 4.269618,1.56244 6.128782,2.03126 3.601017,0.90808 9.359065,1.56794 8.769793,1.00501 -0.186652,-0.17831 -1.255657,-1.02273 -2.375566,-1.8765 -14.83625,-11.31041 -19.907286,-32.127333 -11.981684,-49.185583 0.764543,-1.645523 1.496739,-2.991861 1.627102,-2.991861 0.130363,0 0.906786,0.801753 1.725385,1.781674 6.268372,7.503681 15.958898,15.985339 24.91879,21.81024 16.72133,10.87066 34.74148,16.95721 55.28265,18.67246 l 2.68084,0.22386 -0.24252,-1.6457 c -1.57479,-10.6865 -0.13735,-19.606886 4.47467,-27.768665 5.06769,-8.96818 13.05661,-15.586641 22.81567,-18.901755 4.10325,-1.393858 7.91915,-1.977544 12.92835,-1.977544 10.39865,0 19.37565,3.429411 27.31107,10.433422 l 2.71482,2.396179 4.39958,-1.111873 c 6.70726,-1.695078 10.78627,-3.328903 20.60433,-8.252972 1.21593,-0.609829 -2.71346,7.344732 -5.41319,10.958321 -2.38294,3.189564 -6.59195,7.287285 -9.54516,9.292767 -1.15215,0.782413 -2.09482,1.510575 -2.09482,1.61814 0,0.519069 9.16091,-1.288437 14.08371,-2.778807 2.05317,-0.621593 4.84021,-1.581749 6.19344,-2.133681 1.35322,-0.551931 2.46041,-0.933636 2.46041,-0.848232 0,0.250604 -1.6503,2.414707 -4.61276,6.048908 -3.22767,3.959552 -8.28998,8.945392 -12.29929,12.113482 l -2.82833,2.23491 -0.10863,6.57015 c -0.67994,41.12508 -22.8302,79.78797 -57.30643,100.02736 -13.78145,8.09045 -29.03808,12.97686 -46.20429,14.79835 -4.30417,0.45671 -18.97381,0.63467 -23.07693,0.27995 z"
   id="path264" /><path
   style="display:none;fill:#ffffff;fill-opacity:0;stroke-width:0.339367"
   d="m 102.82805,230.70746 c -10.590895,-0.9156 -24.275042,-4.25326 -33.993736,-8.29131 -5.393385,-2.24092 -14.339307,-6.84105 -17.08092,-8.78328 -0.363291,-0.25736 0.997124,-0.29972 4.751131,-0.14794 16.24348,0.65677 32.368018,-3.51643 46.413925,-12.01243 3.38358,-2.04664 7.8715,-5.22108 7.87917,-5.57318 0.003,-0.13999 -0.56713,-0.25514 -1.26708,-0.25589 -2.31061,-0.002 -7.65292,-1.02761 -10.733121,-2.05957 -8.704894,-2.9164 -16.313485,-8.74135 -21.395351,-16.37974 -1.701807,-2.55794 -4.60795,-8.44788 -4.60795,-9.33904 0,-0.15405 0.725396,-0.1607 1.611991,-0.0148 4.014476,0.66079 14.43509,-0.001 16.326705,-1.03722 0.286663,-0.157 -0.402278,-0.46959 -1.819639,-0.82561 C 78.118377,163.27588 68.164449,155.3969 63.005157,145.48009 60.239065,140.16331 58.766502,135.069 58.321225,129.2761 c -0.191512,-2.4915 -0.150794,-2.94347 0.249877,-2.77366 0.26327,0.11157 1.71549,0.73334 3.227156,1.38171 1.511666,0.64837 4.269618,1.56244 6.128782,2.03126 3.601017,0.90808 9.359065,1.56794 8.769793,1.00501 -0.186652,-0.17831 -1.255657,-1.02273 -2.375566,-1.8765 -14.83625,-11.31041 -19.907286,-32.127333 -11.981684,-49.185583 0.764543,-1.645523 1.496739,-2.991861 1.627102,-2.991861 0.130363,0 0.906786,0.801753 1.725385,1.781674 6.268372,7.503681 15.958898,15.985339 24.91879,21.81024 16.72133,10.87066 34.74148,16.95721 55.28265,18.67246 l 2.68084,0.22386 -0.24252,-1.6457 c -1.57479,-10.6865 -0.13735,-19.606886 4.47467,-27.768665 5.06769,-8.96818 13.05661,-15.586641 22.81567,-18.901755 4.10325,-1.393858 7.91915,-1.977544 12.92835,-1.977544 10.39865,0 19.37565,3.429411 27.31107,10.433422 l 2.71482,2.396179 4.39958,-1.111873 c 6.70726,-1.695078 10.78627,-3.328903 20.60433,-8.252972 1.21593,-0.609829 -2.71346,7.344732 -5.41319,10.958321 -2.38294,3.189564 -6.59195,7.287285 -9.54516,9.292767 -1.15215,0.782413 -2.09482,1.510575 -2.09482,1.61814 0,0.519069 9.16091,-1.288437 14.08371,-2.778807 2.05317,-0.621593 4.84021,-1.581749 6.19344,-2.133681 1.35322,-0.551931 2.46041,-0.933636 2.46041,-0.848232 0,0.250604 -1.6503,2.414707 -4.61276,6.048908 -3.22767,3.959552 -8.28998,8.945392 -12.29929,12.113482 l -2.82833,2.23491 -0.10863,6.57015 c -0.67994,41.12508 -22.8302,79.78797 -57.30643,100.02736 -13.78145,8.09045 -29.03808,12.97686 -46.20429,14.79835 -4.30417,0.45671 -18.97381,0.63467 -23.07693,0.27995 z"
   id="path266" /><path
   style="display:none;fill:#ffffff;fill-opacity:0;stroke-width:0.339367"
   d="m 102.82805,230.70746 c -10.590895,-0.9156 -24.275042,-4.25326 -33.993736,-8.29131 -5.393385,-2.24092 -14.339307,-6.84105 -17.08092,-8.78328 -0.363291,-0.25736 0.997124,-0.29972 4.751131,-0.14794 16.24348,0.65677 32.368018,-3.51643 46.413925,-12.01243 3.38358,-2.04664 7.8715,-5.22108 7.87917,-5.57318 0.003,-0.13999 -0.56713,-0.25514 -1.26708,-0.25589 -2.31061,-0.002 -7.65292,-1.02761 -10.733121,-2.05957 -8.704894,-2.9164 -16.313485,-8.74135 -21.395351,-16.37974 -1.701807,-2.55794 -4.60795,-8.44788 -4.60795,-9.33904 0,-0.15405 0.725396,-0.1607 1.611991,-0.0148 4.014476,0.66079 14.43509,-0.001 16.326705,-1.03722 0.286663,-0.157 -0.402278,-0.46959 -1.819639,-0.82561 C 78.118377,163.27588 68.164449,155.3969 63.005157,145.48009 60.239065,140.16331 58.766502,135.069 58.321225,129.2761 c -0.191512,-2.4915 -0.150794,-2.94347 0.249877,-2.77366 0.26327,0.11157 1.71549,0.73334 3.227156,1.38171 1.511666,0.64837 4.269618,1.56244 6.128782,2.03126 3.601017,0.90808 9.359065,1.56794 8.769793,1.00501 -0.186652,-0.17831 -1.255657,-1.02273 -2.375566,-1.8765 -14.83625,-11.31041 -19.907286,-32.127333 -11.981684,-49.185583 0.764543,-1.645523 1.496739,-2.991861 1.627102,-2.991861 0.130363,0 0.906786,0.801753 1.725385,1.781674 6.268372,7.503681 15.958898,15.985339 24.91879,21.81024 16.72133,10.87066 34.74148,16.95721 55.28265,18.67246 l 2.68084,0.22386 -0.24252,-1.6457 c -1.57479,-10.6865 -0.13735,-19.606886 4.47467,-27.768665 5.06769,-8.96818 13.05661,-15.586641 22.81567,-18.901755 4.10325,-1.393858 7.91915,-1.977544 12.92835,-1.977544 10.39865,0 19.37565,3.429411 27.31107,10.433422 l 2.71482,2.396179 4.39958,-1.111873 c 6.70726,-1.695078 10.78627,-3.328903 20.60433,-8.252972 1.21593,-0.609829 -2.71346,7.344732 -5.41319,10.958321 -2.38294,3.189564 -6.59195,7.287285 -9.54516,9.292767 -1.15215,0.782413 -2.09482,1.510575 -2.09482,1.61814 0,0.519069 9.16091,-1.288437 14.08371,-2.778807 2.05317,-0.621593 4.84021,-1.581749 6.19344,-2.133681 1.35322,-0.551931 2.46041,-0.933636 2.46041,-0.848232 0,0.250604 -1.6503,2.414707 -4.61276,6.048908 -3.22767,3.959552 -8.28998,8.945392 -12.29929,12.113482 l -2.82833,2.23491 -0.10863,6.57015 c -0.67994,41.12508 -22.8302,79.78797 -57.30643,100.02736 -13.78145,8.09045 -29.03808,12.97686 -46.20429,14.79835 -4.30417,0.45671 -18.97381,0.63467 -23.07693,0.27995 z"
   id="path337" /><path
   style="display:none;fill:#ffffff;fill-opacity:0;stroke-width:0.339367"
   d="m 102.82805,230.70746 c -10.590895,-0.9156 -24.275042,-4.25326 -33.993736,-8.29131 -5.393385,-2.24092 -14.339307,-6.84105 -17.08092,-8.78328 -0.363291,-0.25736 0.997124,-0.29972 4.751131,-0.14794 16.24348,0.65677 32.368018,-3.51643 46.413925,-12.01243 3.38358,-2.04664 7.8715,-5.22108 7.87917,-5.57318 0.003,-0.13999 -0.56713,-0.25514 -1.26708,-0.25589 -2.31061,-0.002 -7.65292,-1.02761 -10.733121,-2.05957 -8.704894,-2.9164 -16.313485,-8.74135 -21.395351,-16.37974 -1.701807,-2.55794 -4.60795,-8.44788 -4.60795,-9.33904 0,-0.15405 0.725396,-0.1607 1.611991,-0.0148 4.014476,0.66079 14.43509,-0.001 16.326705,-1.03722 0.286663,-0.157 -0.402278,-0.46959 -1.819639,-0.82561 C 78.118377,163.27588 68.164449,155.3969 63.005157,145.48009 60.239065,140.16331 58.766502,135.069 58.321225,129.2761 c -0.191512,-2.4915 -0.150794,-2.94347 0.249877,-2.77366 0.26327,0.11157 1.71549,0.73334 3.227156,1.38171 1.511666,0.64837 4.269618,1.56244 6.128782,2.03126 3.601017,0.90808 9.359065,1.56794 8.769793,1.00501 -0.186652,-0.17831 -1.255657,-1.02273 -2.375566,-1.8765 -14.83625,-11.31041 -19.907286,-32.127333 -11.981684,-49.185583 0.764543,-1.645523 1.496739,-2.991861 1.627102,-2.991861 0.130363,0 0.906786,0.801753 1.725385,1.781674 6.268372,7.503681 15.958898,15.985339 24.91879,21.81024 16.72133,10.87066 34.74148,16.95721 55.28265,18.67246 l 2.68084,0.22386 -0.24252,-1.6457 c -1.57479,-10.6865 -0.13735,-19.606886 4.47467,-27.768665 5.06769,-8.96818 13.05661,-15.586641 22.81567,-18.901755 4.10325,-1.393858 7.91915,-1.977544 12.92835,-1.977544 10.39865,0 19.37565,3.429411 27.31107,10.433422 l 2.71482,2.396179 4.39958,-1.111873 c 6.70726,-1.695078 10.78627,-3.328903 20.60433,-8.252972 1.21593,-0.609829 -2.71346,7.344732 -5.41319,10.958321 -2.38294,3.189564 -6.59195,7.287285 -9.54516,9.292767 -1.15215,0.782413 -2.09482,1.510575 -2.09482,1.61814 0,0.519069 9.16091,-1.288437 14.08371,-2.778807 2.05317,-0.621593 4.84021,-1.581749 6.19344,-2.133681 1.35322,-0.551931 2.46041,-0.933636 2.46041,-0.848232 0,0.250604 -1.6503,2.414707 -4.61276,6.048908 -3.22767,3.959552 -8.28998,8.945392 -12.29929,12.113482 l -2.82833,2.23491 -0.10863,6.57015 c -0.67994,41.12508 -22.8302,79.78797 -57.30643,100.02736 -13.78145,8.09045 -29.03808,12.97686 -46.20429,14.79835 -4.30417,0.45671 -18.97381,0.63467 -23.07693,0.27995 z"
   id="path339" /><path
   style="display:none;fill:#f9f9f9;fill-opacity:0;stroke-width:0.339367"
   d="m 102.82805,230.70746 c -10.590895,-0.9156 -24.275042,-4.25326 -33.993736,-8.29131 -5.393385,-2.24092 -14.339307,-6.84105 -17.08092,-8.78328 -0.363291,-0.25736 0.997124,-0.29972 4.751131,-0.14794 16.24348,0.65677 32.368018,-3.51643 46.413925,-12.01243 3.38358,-2.04664 7.8715,-5.22108 7.87917,-5.57318 0.003,-0.13999 -0.56713,-0.25514 -1.26708,-0.25589 -2.31061,-0.002 -7.65292,-1.02761 -10.733121,-2.05957 -8.704894,-2.9164 -16.313485,-8.74135 -21.395351,-16.37974 -1.701807,-2.55794 -4.60795,-8.44788 -4.60795,-9.33904 0,-0.15405 0.725396,-0.1607 1.611991,-0.0148 4.014476,0.66079 14.43509,-0.001 16.326705,-1.03722 0.286663,-0.157 -0.402278,-0.46959 -1.819639,-0.82561 C 78.118377,163.27588 68.164449,155.3969 63.005157,145.48009 60.239065,140.16331 58.766502,135.069 58.321225,129.2761 c -0.191512,-2.4915 -0.150794,-2.94347 0.249877,-2.77366 0.26327,0.11157 1.71549,0.73334 3.227156,1.38171 1.511666,0.64837 4.269618,1.56244 6.128782,2.03126 3.601017,0.90808 9.359065,1.56794 8.769793,1.00501 -0.186652,-0.17831 -1.255657,-1.02273 -2.375566,-1.8765 -14.83625,-11.31041 -19.907286,-32.127333 -11.981684,-49.185583 0.764543,-1.645523 1.496739,-2.991861 1.627102,-2.991861 0.130363,0 0.906786,0.801753 1.725385,1.781674 6.268372,7.503681 15.958898,15.985339 24.91879,21.81024 16.72133,10.87066 34.74148,16.95721 55.28265,18.67246 l 2.68084,0.22386 -0.24252,-1.6457 c -1.57479,-10.6865 -0.13735,-19.606886 4.47467,-27.768665 5.06769,-8.96818 13.05661,-15.586641 22.81567,-18.901755 4.10325,-1.393858 7.91915,-1.977544 12.92835,-1.977544 10.39865,0 19.37565,3.429411 27.31107,10.433422 l 2.71482,2.396179 4.39958,-1.111873 c 6.70726,-1.695078 10.78627,-3.328903 20.60433,-8.252972 1.21593,-0.609829 -2.71346,7.344732 -5.41319,10.958321 -2.38294,3.189564 -6.59195,7.287285 -9.54516,9.292767 -1.15215,0.782413 -2.09482,1.510575 -2.09482,1.61814 0,0.519069 9.16091,-1.288437 14.08371,-2.778807 2.05317,-0.621593 4.84021,-1.581749 6.19344,-2.133681 1.35322,-0.551931 2.46041,-0.933636 2.46041,-0.848232 0,0.250604 -1.6503,2.414707 -4.61276,6.048908 -3.22767,3.959552 -8.28998,8.945392 -12.29929,12.113482 l -2.82833,2.23491 -0.10863,6.57015 c -0.67994,41.12508 -22.8302,79.78797 -57.30643,100.02736 -13.78145,8.09045 -29.03808,12.97686 -46.20429,14.79835 -4.30417,0.45671 -18.97381,0.63467 -23.07693,0.27995 z"
   id="path442" /><path
   style="display:none;fill:#f9f9f9;fill-opacity:0;stroke-width:0.339367"
   d="m 102.82805,230.70746 c -10.590895,-0.9156 -24.275042,-4.25326 -33.993736,-8.29131 -5.393385,-2.24092 -14.339307,-6.84105 -17.08092,-8.78328 -0.363291,-0.25736 0.997124,-0.29972 4.751131,-0.14794 16.24348,0.65677 32.368018,-3.51643 46.413925,-12.01243 3.38358,-2.04664 7.8715,-5.22108 7.87917,-5.57318 0.003,-0.13999 -0.56713,-0.25514 -1.26708,-0.25589 -2.31061,-0.002 -7.65292,-1.02761 -10.733121,-2.05957 -8.704894,-2.9164 -16.313485,-8.74135 -21.395351,-16.37974 -1.701807,-2.55794 -4.60795,-8.44788 -4.60795,-9.33904 0,-0.15405 0.725396,-0.1607 1.611991,-0.0148 4.014476,0.66079 14.43509,-0.001 16.326705,-1.03722 0.286663,-0.157 -0.402278,-0.46959 -1.819639,-0.82561 C 78.118377,163.27588 68.164449,155.3969 63.005157,145.48009 60.239065,140.16331 58.766502,135.069 58.321225,129.2761 c -0.191512,-2.4915 -0.150794,-2.94347 0.249877,-2.77366 0.26327,0.11157 1.71549,0.73334 3.227156,1.38171 1.511666,0.64837 4.269618,1.56244 6.128782,2.03126 3.601017,0.90808 9.359065,1.56794 8.769793,1.00501 -0.186652,-0.17831 -1.255657,-1.02273 -2.375566,-1.8765 -14.83625,-11.31041 -19.907286,-32.127333 -11.981684,-49.185583 0.764543,-1.645523 1.496739,-2.991861 1.627102,-2.991861 0.130363,0 0.906786,0.801753 1.725385,1.781674 6.268372,7.503681 15.958898,15.985339 24.91879,21.81024 16.72133,10.87066 34.74148,16.95721 55.28265,18.67246 l 2.68084,0.22386 -0.24252,-1.6457 c -1.57479,-10.6865 -0.13735,-19.606886 4.47467,-27.768665 5.06769,-8.96818 13.05661,-15.586641 22.81567,-18.901755 4.10325,-1.393858 7.91915,-1.977544 12.92835,-1.977544 10.39865,0 19.37565,3.429411 27.31107,10.433422 l 2.71482,2.396179 4.39958,-1.111873 c 6.70726,-1.695078 10.78627,-3.328903 20.60433,-8.252972 1.21593,-0.609829 -2.71346,7.344732 -5.41319,10.958321 -2.38294,3.189564 -6.59195,7.287285 -9.54516,9.292767 -1.15215,0.782413 -2.09482,1.510575 -2.09482,1.61814 0,0.519069 9.16091,-1.288437 14.08371,-2.778807 2.05317,-0.621593 4.84021,-1.581749 6.19344,-2.133681 1.35322,-0.551931 2.46041,-0.933636 2.46041,-0.848232 0,0.250604 -1.6503,2.414707 -4.61276,6.048908 -3.22767,3.959552 -8.28998,8.945392 -12.29929,12.113482 l -2.82833,2.23491 -0.10863,6.57015 c -0.67994,41.12508 -22.8302,79.78797 -57.30643,100.02736 -13.78145,8.09045 -29.03808,12.97686 -46.20429,14.79835 -4.30417,0.45671 -18.97381,0.63467 -23.07693,0.27995 z"
   id="path513"
   inkscape:label="path513" /><path
   style="display:none;fill:#f9f9f9;fill-opacity:0;stroke-width:0.339367"
   d="m 102.82805,230.70746 c -10.590895,-0.9156 -24.275042,-4.25326 -33.993736,-8.29131 -5.393385,-2.24092 -14.339307,-6.84105 -17.08092,-8.78328 -0.363291,-0.25736 0.997124,-0.29972 4.751131,-0.14794 16.24348,0.65677 32.368018,-3.51643 46.413925,-12.01243 3.38358,-2.04664 7.8715,-5.22108 7.87917,-5.57318 0.003,-0.13999 -0.56713,-0.25514 -1.26708,-0.25589 -2.31061,-0.002 -7.65292,-1.02761 -10.733121,-2.05957 -8.704894,-2.9164 -16.313485,-8.74135 -21.395351,-16.37974 -1.701807,-2.55794 -4.60795,-8.44788 -4.60795,-9.33904 0,-0.15405 0.725396,-0.1607 1.611991,-0.0148 4.014476,0.66079 14.43509,-0.001 16.326705,-1.03722 0.286663,-0.157 -0.402278,-0.46959 -1.819639,-0.82561 C 78.118377,163.27588 68.164449,155.3969 63.005157,145.48009 60.239065,140.16331 58.766502,135.069 58.321225,129.2761 c -0.191512,-2.4915 -0.150794,-2.94347 0.249877,-2.77366 0.26327,0.11157 1.71549,0.73334 3.227156,1.38171 1.511666,0.64837 4.269618,1.56244 6.128782,2.03126 3.601017,0.90808 9.359065,1.56794 8.769793,1.00501 -0.186652,-0.17831 -1.255657,-1.02273 -2.375566,-1.8765 -14.83625,-11.31041 -19.907286,-32.127333 -11.981684,-49.185583 0.764543,-1.645523 1.496739,-2.991861 1.627102,-2.991861 0.130363,0 0.906786,0.801753 1.725385,1.781674 6.268372,7.503681 15.958898,15.985339 24.91879,21.81024 16.72133,10.87066 34.74148,16.95721 55.28265,18.67246 l 2.68084,0.22386 -0.24252,-1.6457 c -1.57479,-10.6865 -0.13735,-19.606886 4.47467,-27.768665 5.06769,-8.96818 13.05661,-15.586641 22.81567,-18.901755 4.10325,-1.393858 7.91915,-1.977544 12.92835,-1.977544 10.39865,0 19.37565,3.429411 27.31107,10.433422 l 2.71482,2.396179 4.39958,-1.111873 c 6.70726,-1.695078 10.78627,-3.328903 20.60433,-8.252972 1.21593,-0.609829 -2.71346,7.344732 -5.41319,10.958321 -2.38294,3.189564 -6.59195,7.287285 -9.54516,9.292767 -1.15215,0.782413 -2.09482,1.510575 -2.09482,1.61814 0,0.519069 9.16091,-1.288437 14.08371,-2.778807 2.05317,-0.621593 4.84021,-1.581749 6.19344,-2.133681 1.35322,-0.551931 2.46041,-0.933636 2.46041,-0.848232 0,0.250604 -1.6503,2.414707 -4.61276,6.048908 -3.22767,3.959552 -8.28998,8.945392 -12.29929,12.113482 l -2.82833,2.23491 -0.10863,6.57015 c -0.67994,41.12508 -22.8302,79.78797 -57.30643,100.02736 -13.78145,8.09045 -29.03808,12.97686 -46.20429,14.79835 -4.30417,0.45671 -18.97381,0.63467 -23.07693,0.27995 z"
   id="path569" /><path
   style="fill:#f9f9f9;fill-opacity:0;stroke-width:0.339367"
   d="M 101.64027,230.58738 C 84.357894,228.68317 68.180691,223.41065 54.032477,215.07092 l -2.811415,-1.6572 7.562546,0.0145 c 4.24055,0.008 8.978743,-0.17329 10.786528,-0.413 14.703594,-1.94964 27.93282,-7.16803 39.172234,-15.45187 l 2.35097,-1.73275 -3.56963,-0.3956 c -8.487422,-0.9406 -15.254668,-3.75852 -21.929746,-9.13168 -5.379651,-4.33039 -10.214118,-11.1016 -12.449194,-17.43648 -0.482624,-1.3679 -0.477816,-1.44493 0.07615,-1.22019 1.126681,0.45709 9.400889,0.59939 12.299441,0.21153 2.986174,-0.39959 5.595696,-1.00682 5.356154,-1.24636 -0.07555,-0.0755 -1.501639,-0.53271 -3.169096,-1.01592 C 70.97157,160.74603 59.214691,145.8181 58.274006,128.22374 l -0.111903,-2.09301 1.980314,0.99966 c 4.140346,2.09004 12.894639,4.3063 15.712908,3.97793 0.945459,-0.11016 0.920612,-0.14881 -1.046376,-1.62729 -7.941952,-5.96954 -13.688683,-15.26291 -15.589044,-25.20993 -0.697864,-3.65281 -0.70339,-11.082311 -0.01094,-14.706258 0.658392,-3.445693 2.115491,-7.77884 3.609775,-10.734811 l 1.151846,-2.278565 1.866516,2.24491 c 2.857072,3.436279 8.57775,9.121314 12.760389,12.680885 16.136364,13.732599 35.587899,22.813869 56.278789,26.274649 4.65839,0.77917 13.35073,1.7247 13.59644,1.47899 0.0677,-0.0677 -0.0943,-1.57173 -0.36016,-3.34219 -3.10513,-20.680654 9.91775,-40.329065 30.28794,-45.697276 4.45893,-1.175073 12.28702,-1.472768 17.04107,-0.648057 7.79881,1.352899 15.07056,4.970524 20.8403,10.367831 l 2.16541,2.025636 3.87025,-0.984796 c 6.76646,-1.721746 13.73167,-4.369966 18.91808,-7.192785 1.37019,-0.745759 2.55839,-1.288799 2.64043,-1.206754 0.20804,0.20804 -1.48851,4.077297 -2.85515,6.511631 -2.93344,5.225235 -7.63587,10.443301 -12.23329,13.574741 -1.36356,0.928761 -2.31105,1.744706 -2.10553,1.813211 0.50619,0.168731 6.34358,-0.836656 9.68671,-1.668362 3.26565,-0.812433 9.80778,-2.925571 11.13726,-3.597388 1.74621,-0.8824 1.67645,-0.275958 -0.26267,2.283591 -4.64068,6.12549 -10.98266,12.517937 -16.09374,16.221817 l -1.71787,1.2449 -0.0103,5.59955 c -0.023,12.51714 -1.97054,24.17728 -6.13268,36.71664 -13.35227,40.22658 -45.39567,69.31355 -85.16662,77.30885 -8.93233,1.7957 -12.27405,2.11291 -23.41629,2.22277 -5.69287,0.0561 -11.5724,-0.0325 -13.06561,-0.19708 z"
   id="path587" /><path
   style="fill:#f9f9f9;fill-opacity:0;stroke-width:0.339367"
   d="M 101.64027,230.58738 C 84.357894,228.68317 68.180691,223.41065 54.032477,215.07092 l -2.811415,-1.6572 7.562546,0.0145 c 4.24055,0.008 8.978743,-0.17329 10.786528,-0.413 14.703594,-1.94964 27.93282,-7.16803 39.172234,-15.45187 l 2.35097,-1.73275 -3.56963,-0.3956 c -8.487422,-0.9406 -15.254668,-3.75852 -21.929746,-9.13168 -5.379651,-4.33039 -10.214118,-11.1016 -12.449194,-17.43648 -0.482624,-1.3679 -0.477816,-1.44493 0.07615,-1.22019 1.126681,0.45709 9.400889,0.59939 12.299441,0.21153 2.986174,-0.39959 5.595696,-1.00682 5.356154,-1.24636 -0.07555,-0.0755 -1.501639,-0.53271 -3.169096,-1.01592 C 70.97157,160.74603 59.214691,145.8181 58.274006,128.22374 l -0.111903,-2.09301 1.980314,0.99966 c 4.140346,2.09004 12.894639,4.3063 15.712908,3.97793 0.945459,-0.11016 0.920612,-0.14881 -1.046376,-1.62729 -7.941952,-5.96954 -13.688683,-15.26291 -15.589044,-25.20993 -0.697864,-3.65281 -0.70339,-11.082311 -0.01094,-14.706258 0.658392,-3.445693 2.115491,-7.77884 3.609775,-10.734811 l 1.151846,-2.278565 1.866516,2.24491 c 2.857072,3.436279 8.57775,9.121314 12.760389,12.680885 16.136364,13.732599 35.587899,22.813869 56.278789,26.274649 4.65839,0.77917 13.35073,1.7247 13.59644,1.47899 0.0677,-0.0677 -0.0943,-1.57173 -0.36016,-3.34219 -3.10513,-20.680654 9.91775,-40.329065 30.28794,-45.697276 4.45893,-1.175073 12.28702,-1.472768 17.04107,-0.648057 7.79881,1.352899 15.07056,4.970524 20.8403,10.367831 l 2.16541,2.025636 3.87025,-0.984796 c 6.76646,-1.721746 13.73167,-4.369966 18.91808,-7.192785 1.37019,-0.745759 2.55839,-1.288799 2.64043,-1.206754 0.20804,0.20804 -1.48851,4.077297 -2.85515,6.511631 -2.93344,5.225235 -7.63587,10.443301 -12.23329,13.574741 -1.36356,0.928761 -2.31105,1.744706 -2.10553,1.813211 0.50619,0.168731 6.34358,-0.836656 9.68671,-1.668362 3.26565,-0.812433 9.80778,-2.925571 11.13726,-3.597388 1.74621,-0.8824 1.67645,-0.275958 -0.26267,2.283591 -4.64068,6.12549 -10.98266,12.517937 -16.09374,16.221817 l -1.71787,1.2449 -0.0103,5.59955 c -0.023,12.51714 -1.97054,24.17728 -6.13268,36.71664 -13.35227,40.22658 -45.39567,69.31355 -85.16662,77.30885 -8.93233,1.7957 -12.27405,2.11291 -23.41629,2.22277 -5.69287,0.0561 -11.5724,-0.0325 -13.06561,-0.19708 z"
   id="path589" /></svg>
